<mxfile host="app.diagrams.net" modified="2024-06-04T13:27:28.565Z" agent="Mozilla/5.0 (Windows NT 10.0; Win64; x64) AppleWebKit/537.36 (KHTML, like Gecko) Chrome/121.0.0.0 Safari/537.36" etag="ANn6o53ana_hIeDAQdmv" version="24.4.13" type="device" pages="2">
  <diagram name="PÃ¡gina-1" id="f99ilUiZsLSfRynnn5l8">
    <mxGraphModel dx="1434" dy="1951" grid="1" gridSize="10" guides="1" tooltips="1" connect="1" arrows="1" fold="1" page="1" pageScale="1" pageWidth="827" pageHeight="1169" math="0" shadow="0">
      <root>
        <mxCell id="0" />
        <mxCell id="1" parent="0" />
        <mxCell id="jl88kithJ3bsDOnueBaD-16" value="" style="edgeStyle=orthogonalEdgeStyle;rounded=0;orthogonalLoop=1;jettySize=auto;html=1;" edge="1" parent="1" source="jl88kithJ3bsDOnueBaD-17" target="jl88kithJ3bsDOnueBaD-19">
          <mxGeometry relative="1" as="geometry" />
        </mxCell>
        <mxCell id="jl88kithJ3bsDOnueBaD-17" value="&lt;font style=&quot;vertical-align: inherit;&quot;&gt;&lt;font style=&quot;vertical-align: inherit;&quot;&gt;inicio&lt;/font&gt;&lt;/font&gt;" style="ellipse;whiteSpace=wrap;html=1;" vertex="1" parent="1">
          <mxGeometry x="370" y="-330" width="120" height="80" as="geometry" />
        </mxCell>
        <mxCell id="jl88kithJ3bsDOnueBaD-18" value="" style="edgeStyle=orthogonalEdgeStyle;rounded=0;orthogonalLoop=1;jettySize=auto;html=1;" edge="1" parent="1" source="jl88kithJ3bsDOnueBaD-19" target="jl88kithJ3bsDOnueBaD-21">
          <mxGeometry relative="1" as="geometry" />
        </mxCell>
        <mxCell id="jl88kithJ3bsDOnueBaD-19" value="&lt;font style=&quot;vertical-align: inherit;&quot;&gt;&lt;font style=&quot;vertical-align: inherit;&quot;&gt;CAMPO DE CADASTRO&lt;/font&gt;&lt;/font&gt;&lt;div&gt;&lt;font style=&quot;vertical-align: inherit;&quot;&gt;&lt;font style=&quot;vertical-align: inherit;&quot;&gt;&lt;br&gt;&lt;/font&gt;&lt;/font&gt;&lt;/div&gt;" style="whiteSpace=wrap;html=1;" vertex="1" parent="1">
          <mxGeometry x="370" y="-200" width="120" height="60" as="geometry" />
        </mxCell>
        <mxCell id="jl88kithJ3bsDOnueBaD-20" value="" style="edgeStyle=orthogonalEdgeStyle;rounded=0;orthogonalLoop=1;jettySize=auto;html=1;" edge="1" parent="1" source="jl88kithJ3bsDOnueBaD-21" target="jl88kithJ3bsDOnueBaD-24">
          <mxGeometry relative="1" as="geometry" />
        </mxCell>
        <mxCell id="jl88kithJ3bsDOnueBaD-21" value="&lt;font style=&quot;vertical-align: inherit;&quot;&gt;&lt;font style=&quot;vertical-align: inherit;&quot;&gt;PREENCHER CAMPOS&lt;/font&gt;&lt;/font&gt;" style="whiteSpace=wrap;html=1;" vertex="1" parent="1">
          <mxGeometry x="370" y="-70" width="120" height="60" as="geometry" />
        </mxCell>
        <mxCell id="jl88kithJ3bsDOnueBaD-22" value="&lt;font style=&quot;vertical-align: inherit;&quot;&gt;&lt;font style=&quot;vertical-align: inherit;&quot;&gt;SIM&lt;/font&gt;&lt;/font&gt;" style="edgeStyle=orthogonalEdgeStyle;rounded=0;orthogonalLoop=1;jettySize=auto;html=1;" edge="1" parent="1" source="jl88kithJ3bsDOnueBaD-24" target="jl88kithJ3bsDOnueBaD-26">
          <mxGeometry relative="1" as="geometry" />
        </mxCell>
        <mxCell id="jl88kithJ3bsDOnueBaD-23" value="&lt;font style=&quot;vertical-align: inherit;&quot;&gt;&lt;font style=&quot;vertical-align: inherit;&quot;&gt;NAO&lt;/font&gt;&lt;/font&gt;" style="edgeStyle=orthogonalEdgeStyle;rounded=0;orthogonalLoop=1;jettySize=auto;html=1;" edge="1" parent="1" source="jl88kithJ3bsDOnueBaD-24" target="jl88kithJ3bsDOnueBaD-30">
          <mxGeometry relative="1" as="geometry" />
        </mxCell>
        <mxCell id="jl88kithJ3bsDOnueBaD-24" value="&lt;font style=&quot;vertical-align: inherit;&quot;&gt;&lt;font style=&quot;vertical-align: inherit;&quot;&gt;DADOS VALIDOS?&lt;/font&gt;&lt;/font&gt;" style="rhombus;whiteSpace=wrap;html=1;" vertex="1" parent="1">
          <mxGeometry x="390" y="60" width="80" height="80" as="geometry" />
        </mxCell>
        <mxCell id="jl88kithJ3bsDOnueBaD-25" value="" style="edgeStyle=orthogonalEdgeStyle;rounded=0;orthogonalLoop=1;jettySize=auto;html=1;" edge="1" parent="1" source="jl88kithJ3bsDOnueBaD-26" target="jl88kithJ3bsDOnueBaD-28">
          <mxGeometry relative="1" as="geometry" />
        </mxCell>
        <mxCell id="jl88kithJ3bsDOnueBaD-26" value="&lt;font style=&quot;vertical-align: inherit;&quot;&gt;&lt;font style=&quot;vertical-align: inherit;&quot;&gt;&lt;font style=&quot;vertical-align: inherit;&quot;&gt;&lt;font style=&quot;vertical-align: inherit;&quot;&gt;CADASTRAR CLIENTE&lt;/font&gt;&lt;/font&gt;&lt;/font&gt;&lt;/font&gt;" style="whiteSpace=wrap;html=1;" vertex="1" parent="1">
          <mxGeometry x="560" y="70" width="120" height="60" as="geometry" />
        </mxCell>
        <mxCell id="jl88kithJ3bsDOnueBaD-27" value="" style="edgeStyle=orthogonalEdgeStyle;rounded=0;orthogonalLoop=1;jettySize=auto;html=1;" edge="1" parent="1" source="jl88kithJ3bsDOnueBaD-28" target="jl88kithJ3bsDOnueBaD-32">
          <mxGeometry relative="1" as="geometry" />
        </mxCell>
        <mxCell id="jl88kithJ3bsDOnueBaD-28" value="LISTAR CLIENTE" style="whiteSpace=wrap;html=1;" vertex="1" parent="1">
          <mxGeometry x="760" y="70" width="120" height="60" as="geometry" />
        </mxCell>
        <mxCell id="jl88kithJ3bsDOnueBaD-29" style="edgeStyle=orthogonalEdgeStyle;rounded=0;orthogonalLoop=1;jettySize=auto;html=1;entryX=0;entryY=0.5;entryDx=0;entryDy=0;" edge="1" parent="1" source="jl88kithJ3bsDOnueBaD-30" target="jl88kithJ3bsDOnueBaD-17">
          <mxGeometry relative="1" as="geometry">
            <Array as="points">
              <mxPoint x="250" y="-290" />
            </Array>
          </mxGeometry>
        </mxCell>
        <mxCell id="jl88kithJ3bsDOnueBaD-30" value="&lt;font style=&quot;vertical-align: inherit;&quot;&gt;&lt;font style=&quot;vertical-align: inherit;&quot;&gt;MOSTRAR ERRO&lt;/font&gt;&lt;/font&gt;" style="whiteSpace=wrap;html=1;" vertex="1" parent="1">
          <mxGeometry x="190" y="70" width="120" height="60" as="geometry" />
        </mxCell>
        <mxCell id="jl88kithJ3bsDOnueBaD-31" value="" style="edgeStyle=orthogonalEdgeStyle;rounded=0;orthogonalLoop=1;jettySize=auto;html=1;" edge="1" parent="1" source="jl88kithJ3bsDOnueBaD-32" target="jl88kithJ3bsDOnueBaD-35">
          <mxGeometry relative="1" as="geometry" />
        </mxCell>
        <mxCell id="jl88kithJ3bsDOnueBaD-32" value="&lt;div&gt;&lt;font style=&quot;vertical-align: inherit;&quot;&gt;&lt;font style=&quot;vertical-align: inherit;&quot;&gt;&lt;font style=&quot;vertical-align: inherit;&quot;&gt;&lt;font style=&quot;vertical-align: inherit;&quot;&gt;BUSCAR CLIENTE&lt;/font&gt;&lt;/font&gt;&lt;/font&gt;&lt;/font&gt;&lt;/div&gt;" style="whiteSpace=wrap;html=1;" vertex="1" parent="1">
          <mxGeometry x="760" y="-70" width="120" height="60" as="geometry" />
        </mxCell>
        <mxCell id="jl88kithJ3bsDOnueBaD-33" value="&lt;font style=&quot;vertical-align: inherit;&quot;&gt;&lt;font style=&quot;vertical-align: inherit;&quot;&gt;NAO&lt;/font&gt;&lt;/font&gt;" style="edgeStyle=orthogonalEdgeStyle;rounded=0;orthogonalLoop=1;jettySize=auto;html=1;" edge="1" parent="1" source="jl88kithJ3bsDOnueBaD-35" target="jl88kithJ3bsDOnueBaD-37">
          <mxGeometry relative="1" as="geometry" />
        </mxCell>
        <mxCell id="jl88kithJ3bsDOnueBaD-34" value="SIM" style="edgeStyle=orthogonalEdgeStyle;rounded=0;orthogonalLoop=1;jettySize=auto;html=1;" edge="1" parent="1" source="jl88kithJ3bsDOnueBaD-35" target="jl88kithJ3bsDOnueBaD-40">
          <mxGeometry relative="1" as="geometry" />
        </mxCell>
        <mxCell id="jl88kithJ3bsDOnueBaD-35" value="&lt;font style=&quot;vertical-align: inherit;&quot;&gt;&lt;font style=&quot;vertical-align: inherit;&quot;&gt;CLIENTE EXISTE?&lt;/font&gt;&lt;/font&gt;" style="rhombus;whiteSpace=wrap;html=1;" vertex="1" parent="1">
          <mxGeometry x="780" y="-220" width="80" height="80" as="geometry" />
        </mxCell>
        <mxCell id="jl88kithJ3bsDOnueBaD-36" style="edgeStyle=orthogonalEdgeStyle;rounded=0;orthogonalLoop=1;jettySize=auto;html=1;entryX=0.5;entryY=0;entryDx=0;entryDy=0;" edge="1" parent="1" source="jl88kithJ3bsDOnueBaD-37" target="jl88kithJ3bsDOnueBaD-26">
          <mxGeometry relative="1" as="geometry">
            <mxPoint x="630" y="10" as="targetPoint" />
            <Array as="points">
              <mxPoint x="620" y="-90" />
              <mxPoint x="620" y="-90" />
            </Array>
          </mxGeometry>
        </mxCell>
        <mxCell id="jl88kithJ3bsDOnueBaD-37" value="&lt;font style=&quot;vertical-align: inherit;&quot;&gt;&lt;font style=&quot;vertical-align: inherit;&quot;&gt;MOSTRAR ERRO&lt;/font&gt;&lt;/font&gt;" style="whiteSpace=wrap;html=1;" vertex="1" parent="1">
          <mxGeometry x="570" y="-210" width="120" height="60" as="geometry" />
        </mxCell>
        <mxCell id="jl88kithJ3bsDOnueBaD-38" value="SIM" style="edgeStyle=orthogonalEdgeStyle;rounded=0;orthogonalLoop=1;jettySize=auto;html=1;" edge="1" parent="1" source="jl88kithJ3bsDOnueBaD-40" target="jl88kithJ3bsDOnueBaD-44">
          <mxGeometry relative="1" as="geometry" />
        </mxCell>
        <mxCell id="jl88kithJ3bsDOnueBaD-39" value="NAO" style="edgeStyle=orthogonalEdgeStyle;rounded=0;orthogonalLoop=1;jettySize=auto;html=1;" edge="1" parent="1" source="jl88kithJ3bsDOnueBaD-40" target="jl88kithJ3bsDOnueBaD-46">
          <mxGeometry relative="1" as="geometry" />
        </mxCell>
        <mxCell id="jl88kithJ3bsDOnueBaD-40" value="APAGAR?" style="rhombus;whiteSpace=wrap;html=1;" vertex="1" parent="1">
          <mxGeometry x="940" y="-220" width="80" height="80" as="geometry" />
        </mxCell>
        <mxCell id="jl88kithJ3bsDOnueBaD-41" value="SIM" style="edgeStyle=orthogonalEdgeStyle;rounded=0;orthogonalLoop=1;jettySize=auto;html=1;" edge="1" parent="1" source="jl88kithJ3bsDOnueBaD-44" target="jl88kithJ3bsDOnueBaD-48">
          <mxGeometry relative="1" as="geometry" />
        </mxCell>
        <mxCell id="jl88kithJ3bsDOnueBaD-42" value="" style="edgeStyle=orthogonalEdgeStyle;rounded=0;orthogonalLoop=1;jettySize=auto;html=1;" edge="1" parent="1" source="jl88kithJ3bsDOnueBaD-44" target="jl88kithJ3bsDOnueBaD-32">
          <mxGeometry relative="1" as="geometry" />
        </mxCell>
        <mxCell id="jl88kithJ3bsDOnueBaD-43" value="NAO" style="edgeLabel;html=1;align=center;verticalAlign=middle;resizable=0;points=[];" vertex="1" connectable="0" parent="jl88kithJ3bsDOnueBaD-42">
          <mxGeometry x="-0.3" y="-3" relative="1" as="geometry">
            <mxPoint as="offset" />
          </mxGeometry>
        </mxCell>
        <mxCell id="jl88kithJ3bsDOnueBaD-44" value="CONFIRMAR&lt;div&gt;APAGAR&lt;/div&gt;" style="rhombus;whiteSpace=wrap;html=1;" vertex="1" parent="1">
          <mxGeometry x="940" y="-80" width="80" height="80" as="geometry" />
        </mxCell>
        <mxCell id="jl88kithJ3bsDOnueBaD-45" value="SIM" style="edgeStyle=orthogonalEdgeStyle;rounded=0;orthogonalLoop=1;jettySize=auto;html=1;" edge="1" parent="1" source="jl88kithJ3bsDOnueBaD-46" target="jl88kithJ3bsDOnueBaD-51">
          <mxGeometry relative="1" as="geometry" />
        </mxCell>
        <mxCell id="jl88kithJ3bsDOnueBaD-46" value="ATUALIZAR" style="rhombus;whiteSpace=wrap;html=1;" vertex="1" parent="1">
          <mxGeometry x="1100" y="-220" width="80" height="80" as="geometry" />
        </mxCell>
        <mxCell id="jl88kithJ3bsDOnueBaD-47" style="edgeStyle=orthogonalEdgeStyle;rounded=0;orthogonalLoop=1;jettySize=auto;html=1;entryX=0.5;entryY=0;entryDx=0;entryDy=0;" edge="1" parent="1" source="jl88kithJ3bsDOnueBaD-48" target="jl88kithJ3bsDOnueBaD-17">
          <mxGeometry relative="1" as="geometry">
            <Array as="points">
              <mxPoint x="980" y="180" />
              <mxPoint x="90" y="180" />
              <mxPoint x="90" y="-350" />
              <mxPoint x="430" y="-350" />
            </Array>
          </mxGeometry>
        </mxCell>
        <mxCell id="jl88kithJ3bsDOnueBaD-48" value="APAGAR CADASTRO&lt;div&gt;&lt;br&gt;&lt;/div&gt;" style="whiteSpace=wrap;html=1;" vertex="1" parent="1">
          <mxGeometry x="920" y="70" width="120" height="60" as="geometry" />
        </mxCell>
        <mxCell id="jl88kithJ3bsDOnueBaD-49" value="NAO" style="edgeStyle=orthogonalEdgeStyle;rounded=0;orthogonalLoop=1;jettySize=auto;html=1;entryX=1;entryY=0.5;entryDx=0;entryDy=0;" edge="1" parent="1" source="jl88kithJ3bsDOnueBaD-51" target="jl88kithJ3bsDOnueBaD-46">
          <mxGeometry relative="1" as="geometry">
            <Array as="points">
              <mxPoint x="1200" y="-20" />
              <mxPoint x="1200" y="-180" />
            </Array>
          </mxGeometry>
        </mxCell>
        <mxCell id="jl88kithJ3bsDOnueBaD-50" value="" style="edgeStyle=orthogonalEdgeStyle;rounded=0;orthogonalLoop=1;jettySize=auto;html=1;" edge="1" parent="1" source="jl88kithJ3bsDOnueBaD-51" target="jl88kithJ3bsDOnueBaD-54">
          <mxGeometry relative="1" as="geometry" />
        </mxCell>
        <mxCell id="jl88kithJ3bsDOnueBaD-51" value="DADOS VALIDOS?" style="rhombus;whiteSpace=wrap;html=1;" vertex="1" parent="1">
          <mxGeometry x="1100" y="-60" width="80" height="80" as="geometry" />
        </mxCell>
        <mxCell id="jl88kithJ3bsDOnueBaD-52" value="SIM" style="edgeStyle=orthogonalEdgeStyle;rounded=0;orthogonalLoop=1;jettySize=auto;html=1;" edge="1" parent="1" source="jl88kithJ3bsDOnueBaD-54" target="jl88kithJ3bsDOnueBaD-51">
          <mxGeometry relative="1" as="geometry" />
        </mxCell>
        <mxCell id="jl88kithJ3bsDOnueBaD-53" style="edgeStyle=orthogonalEdgeStyle;rounded=0;orthogonalLoop=1;jettySize=auto;html=1;entryX=1;entryY=0.5;entryDx=0;entryDy=0;" edge="1" parent="1" source="jl88kithJ3bsDOnueBaD-54" target="jl88kithJ3bsDOnueBaD-17">
          <mxGeometry relative="1" as="geometry">
            <Array as="points">
              <mxPoint x="1290" y="100" />
              <mxPoint x="1290" y="-290" />
            </Array>
          </mxGeometry>
        </mxCell>
        <mxCell id="jl88kithJ3bsDOnueBaD-54" value="ATUALIZAR CLIENTE" style="whiteSpace=wrap;html=1;" vertex="1" parent="1">
          <mxGeometry x="1080" y="70" width="120" height="60" as="geometry" />
        </mxCell>
      </root>
    </mxGraphModel>
  </diagram>
  <diagram id="7bfQtQHe0_VRA7fCsCaK" name="PÃ¡gina-2">
    <mxGraphModel dx="2261" dy="1941" grid="1" gridSize="10" guides="1" tooltips="1" connect="1" arrows="1" fold="1" page="1" pageScale="1" pageWidth="827" pageHeight="1169" math="0" shadow="0">
      <root>
        <mxCell id="0" />
        <mxCell id="1" parent="0" />
        <mxCell id="M9o4evjWDcdqHi-cAq4q-5" value="" style="edgeStyle=orthogonalEdgeStyle;rounded=0;orthogonalLoop=1;jettySize=auto;html=1;" edge="1" parent="1" source="M9o4evjWDcdqHi-cAq4q-1" target="M9o4evjWDcdqHi-cAq4q-4">
          <mxGeometry relative="1" as="geometry" />
        </mxCell>
        <mxCell id="M9o4evjWDcdqHi-cAq4q-1" value="INICIO" style="ellipse;whiteSpace=wrap;html=1;" vertex="1" parent="1">
          <mxGeometry x="80" y="20" width="130" height="90" as="geometry" />
        </mxCell>
        <mxCell id="M9o4evjWDcdqHi-cAq4q-9" value="" style="edgeStyle=orthogonalEdgeStyle;rounded=0;orthogonalLoop=1;jettySize=auto;html=1;" edge="1" parent="1" source="M9o4evjWDcdqHi-cAq4q-4" target="M9o4evjWDcdqHi-cAq4q-8">
          <mxGeometry relative="1" as="geometry" />
        </mxCell>
        <mxCell id="M9o4evjWDcdqHi-cAq4q-4" value="PREENCHER CAMPOS&amp;nbsp;" style="whiteSpace=wrap;html=1;" vertex="1" parent="1">
          <mxGeometry x="85" y="205" width="120" height="60" as="geometry" />
        </mxCell>
        <mxCell id="M9o4evjWDcdqHi-cAq4q-13" value="SIM" style="edgeStyle=orthogonalEdgeStyle;rounded=0;orthogonalLoop=1;jettySize=auto;html=1;" edge="1" parent="1" source="M9o4evjWDcdqHi-cAq4q-8" target="M9o4evjWDcdqHi-cAq4q-12">
          <mxGeometry relative="1" as="geometry" />
        </mxCell>
        <mxCell id="M9o4evjWDcdqHi-cAq4q-15" value="NAO" style="edgeStyle=orthogonalEdgeStyle;rounded=0;orthogonalLoop=1;jettySize=auto;html=1;" edge="1" parent="1" source="M9o4evjWDcdqHi-cAq4q-8" target="M9o4evjWDcdqHi-cAq4q-14">
          <mxGeometry relative="1" as="geometry" />
        </mxCell>
        <mxCell id="M9o4evjWDcdqHi-cAq4q-8" value="DADOS VALIDOS?" style="rhombus;whiteSpace=wrap;html=1;" vertex="1" parent="1">
          <mxGeometry x="105" y="335" width="80" height="80" as="geometry" />
        </mxCell>
        <mxCell id="M9o4evjWDcdqHi-cAq4q-18" value="" style="edgeStyle=orthogonalEdgeStyle;rounded=0;orthogonalLoop=1;jettySize=auto;html=1;" edge="1" parent="1" source="M9o4evjWDcdqHi-cAq4q-12" target="M9o4evjWDcdqHi-cAq4q-17">
          <mxGeometry relative="1" as="geometry" />
        </mxCell>
        <mxCell id="M9o4evjWDcdqHi-cAq4q-12" value="CADASTRAR FORNECEDOR" style="whiteSpace=wrap;html=1;" vertex="1" parent="1">
          <mxGeometry x="280" y="345" width="120" height="60" as="geometry" />
        </mxCell>
        <mxCell id="M9o4evjWDcdqHi-cAq4q-16" style="edgeStyle=orthogonalEdgeStyle;rounded=0;orthogonalLoop=1;jettySize=auto;html=1;entryX=0;entryY=0.5;entryDx=0;entryDy=0;" edge="1" parent="1" source="M9o4evjWDcdqHi-cAq4q-14" target="M9o4evjWDcdqHi-cAq4q-1">
          <mxGeometry relative="1" as="geometry">
            <Array as="points">
              <mxPoint x="-30" y="65" />
            </Array>
          </mxGeometry>
        </mxCell>
        <mxCell id="M9o4evjWDcdqHi-cAq4q-14" value="MOSTRAR ERRO" style="whiteSpace=wrap;html=1;" vertex="1" parent="1">
          <mxGeometry x="-90" y="345" width="120" height="60" as="geometry" />
        </mxCell>
        <mxCell id="M9o4evjWDcdqHi-cAq4q-24" value="" style="edgeStyle=orthogonalEdgeStyle;rounded=0;orthogonalLoop=1;jettySize=auto;html=1;" edge="1" parent="1" source="M9o4evjWDcdqHi-cAq4q-17" target="M9o4evjWDcdqHi-cAq4q-23">
          <mxGeometry relative="1" as="geometry" />
        </mxCell>
        <mxCell id="M9o4evjWDcdqHi-cAq4q-17" value="LISTAR FORNECEDOR" style="whiteSpace=wrap;html=1;" vertex="1" parent="1">
          <mxGeometry x="470" y="345" width="120" height="60" as="geometry" />
        </mxCell>
        <mxCell id="M9o4evjWDcdqHi-cAq4q-26" value="" style="edgeStyle=orthogonalEdgeStyle;rounded=0;orthogonalLoop=1;jettySize=auto;html=1;" edge="1" parent="1" source="M9o4evjWDcdqHi-cAq4q-23" target="M9o4evjWDcdqHi-cAq4q-25">
          <mxGeometry relative="1" as="geometry" />
        </mxCell>
        <mxCell id="M9o4evjWDcdqHi-cAq4q-23" value="BUSCAR FORNECEDOR" style="whiteSpace=wrap;html=1;" vertex="1" parent="1">
          <mxGeometry x="650" y="345" width="120" height="60" as="geometry" />
        </mxCell>
        <mxCell id="M9o4evjWDcdqHi-cAq4q-30" value="NAO" style="edgeStyle=orthogonalEdgeStyle;rounded=0;orthogonalLoop=1;jettySize=auto;html=1;" edge="1" parent="1" source="M9o4evjWDcdqHi-cAq4q-25">
          <mxGeometry relative="1" as="geometry">
            <mxPoint x="820" y="235" as="targetPoint" />
          </mxGeometry>
        </mxCell>
        <mxCell id="M9o4evjWDcdqHi-cAq4q-32" value="" style="edgeStyle=orthogonalEdgeStyle;rounded=0;orthogonalLoop=1;jettySize=auto;html=1;" edge="1" parent="1" source="M9o4evjWDcdqHi-cAq4q-25" target="M9o4evjWDcdqHi-cAq4q-31">
          <mxGeometry relative="1" as="geometry" />
        </mxCell>
        <mxCell id="M9o4evjWDcdqHi-cAq4q-25" value="DADOS VALIDOS ?" style="rhombus;whiteSpace=wrap;html=1;" vertex="1" parent="1">
          <mxGeometry x="670" y="195" width="80" height="80" as="geometry" />
        </mxCell>
        <mxCell id="M9o4evjWDcdqHi-cAq4q-36" value="SIM" style="edgeStyle=orthogonalEdgeStyle;rounded=0;orthogonalLoop=1;jettySize=auto;html=1;" edge="1" parent="1" source="M9o4evjWDcdqHi-cAq4q-31" target="M9o4evjWDcdqHi-cAq4q-35">
          <mxGeometry relative="1" as="geometry" />
        </mxCell>
        <mxCell id="M9o4evjWDcdqHi-cAq4q-40" value="NAO" style="edgeStyle=orthogonalEdgeStyle;rounded=0;orthogonalLoop=1;jettySize=auto;html=1;" edge="1" parent="1" source="M9o4evjWDcdqHi-cAq4q-31" target="M9o4evjWDcdqHi-cAq4q-39">
          <mxGeometry relative="1" as="geometry" />
        </mxCell>
        <mxCell id="M9o4evjWDcdqHi-cAq4q-31" value="APAGAR?" style="rhombus;whiteSpace=wrap;html=1;" vertex="1" parent="1">
          <mxGeometry x="510" y="195" width="80" height="80" as="geometry" />
        </mxCell>
        <mxCell id="M9o4evjWDcdqHi-cAq4q-38" value="SIM" style="edgeStyle=orthogonalEdgeStyle;rounded=0;orthogonalLoop=1;jettySize=auto;html=1;" edge="1" parent="1" source="M9o4evjWDcdqHi-cAq4q-35" target="M9o4evjWDcdqHi-cAq4q-37">
          <mxGeometry relative="1" as="geometry" />
        </mxCell>
        <mxCell id="M9o4evjWDcdqHi-cAq4q-35" value="DESEJA REALMENTE APAGAR?" style="rhombus;whiteSpace=wrap;html=1;" vertex="1" parent="1">
          <mxGeometry x="510" y="35" width="80" height="80" as="geometry" />
        </mxCell>
        <mxCell id="M9o4evjWDcdqHi-cAq4q-37" value="APAGAR" style="whiteSpace=wrap;html=1;" vertex="1" parent="1">
          <mxGeometry x="670" y="45" width="120" height="60" as="geometry" />
        </mxCell>
        <mxCell id="M9o4evjWDcdqHi-cAq4q-42" value="SIM" style="edgeStyle=orthogonalEdgeStyle;rounded=0;orthogonalLoop=1;jettySize=auto;html=1;" edge="1" parent="1" source="M9o4evjWDcdqHi-cAq4q-39" target="M9o4evjWDcdqHi-cAq4q-41">
          <mxGeometry relative="1" as="geometry" />
        </mxCell>
        <mxCell id="M9o4evjWDcdqHi-cAq4q-39" value="ATUALIZAR&amp;nbsp;" style="rhombus;whiteSpace=wrap;html=1;" vertex="1" parent="1">
          <mxGeometry x="350" y="195" width="80" height="80" as="geometry" />
        </mxCell>
        <mxCell id="M9o4evjWDcdqHi-cAq4q-45" value="SIM" style="edgeStyle=orthogonalEdgeStyle;rounded=0;orthogonalLoop=1;jettySize=auto;html=1;" edge="1" parent="1" source="M9o4evjWDcdqHi-cAq4q-41" target="M9o4evjWDcdqHi-cAq4q-46">
          <mxGeometry relative="1" as="geometry">
            <mxPoint x="390" y="-40" as="targetPoint" />
          </mxGeometry>
        </mxCell>
        <mxCell id="M9o4evjWDcdqHi-cAq4q-41" value="DESEJA ATUALIZAR:?" style="rhombus;whiteSpace=wrap;html=1;" vertex="1" parent="1">
          <mxGeometry x="350" y="35" width="80" height="80" as="geometry" />
        </mxCell>
        <mxCell id="M9o4evjWDcdqHi-cAq4q-43" value="NAO" style="edgeStyle=orthogonalEdgeStyle;rounded=0;orthogonalLoop=1;jettySize=auto;html=1;entryX=0.075;entryY=0;entryDx=0;entryDy=0;entryPerimeter=0;" edge="1" parent="1" source="M9o4evjWDcdqHi-cAq4q-39" target="M9o4evjWDcdqHi-cAq4q-23">
          <mxGeometry relative="1" as="geometry">
            <Array as="points">
              <mxPoint x="390" y="300" />
              <mxPoint x="659" y="300" />
            </Array>
          </mxGeometry>
        </mxCell>
        <mxCell id="M9o4evjWDcdqHi-cAq4q-46" value="ATUALIZAR" style="rounded=0;whiteSpace=wrap;html=1;" vertex="1" parent="1">
          <mxGeometry x="330" y="-100" width="120" height="60" as="geometry" />
        </mxCell>
        <mxCell id="M9o4evjWDcdqHi-cAq4q-51" value="" style="edgeStyle=orthogonalEdgeStyle;rounded=0;orthogonalLoop=1;jettySize=auto;html=1;entryX=0.5;entryY=1;entryDx=0;entryDy=0;" edge="1" parent="1" source="M9o4evjWDcdqHi-cAq4q-49" target="M9o4evjWDcdqHi-cAq4q-17">
          <mxGeometry relative="1" as="geometry">
            <mxPoint x="960" y="235" as="targetPoint" />
            <Array as="points">
              <mxPoint x="860" y="425" />
              <mxPoint x="530" y="425" />
            </Array>
          </mxGeometry>
        </mxCell>
        <mxCell id="M9o4evjWDcdqHi-cAq4q-52" value="NAO" style="edgeLabel;html=1;align=center;verticalAlign=middle;resizable=0;points=[];" vertex="1" connectable="0" parent="M9o4evjWDcdqHi-cAq4q-51">
          <mxGeometry x="-0.632" y="1" relative="1" as="geometry">
            <mxPoint as="offset" />
          </mxGeometry>
        </mxCell>
        <mxCell id="M9o4evjWDcdqHi-cAq4q-53" style="edgeStyle=orthogonalEdgeStyle;rounded=0;orthogonalLoop=1;jettySize=auto;html=1;entryX=0.5;entryY=1;entryDx=0;entryDy=0;" edge="1" parent="1" source="M9o4evjWDcdqHi-cAq4q-49" target="M9o4evjWDcdqHi-cAq4q-12">
          <mxGeometry relative="1" as="geometry">
            <Array as="points">
              <mxPoint x="990" y="235" />
              <mxPoint x="990" y="460" />
              <mxPoint x="340" y="460" />
            </Array>
          </mxGeometry>
        </mxCell>
        <mxCell id="M9o4evjWDcdqHi-cAq4q-54" value="SIM" style="edgeLabel;html=1;align=center;verticalAlign=middle;resizable=0;points=[];" vertex="1" connectable="0" parent="M9o4evjWDcdqHi-cAq4q-53">
          <mxGeometry x="-0.3157" y="-4" relative="1" as="geometry">
            <mxPoint as="offset" />
          </mxGeometry>
        </mxCell>
        <mxCell id="M9o4evjWDcdqHi-cAq4q-49" value="DESEJA CADASTRAR?" style="rhombus;whiteSpace=wrap;html=1;" vertex="1" parent="1">
          <mxGeometry x="827" y="195" width="80" height="80" as="geometry" />
        </mxCell>
      </root>
    </mxGraphModel>
  </diagram>
</mxfile>
